<svg width="185" height="52" viewBox="0 0 185 52" fill="none" xmlns="http://www.w3.org/2000/svg">
<path d="M182.5 2.1001H1.59985V51.1001H182.5V2.1001Z" fill="#FFFF00"/>
<path d="M30.9999 10.6001L26.2999 41.8001H23.9999L21.4999 22.4001L18.9999 41.8001H16.5999L11.8999 10.6001H15.2999L17.6999 28.6001L20.2999 10.6001H22.6999L25.2999 28.7001L27.6999 10.6001H30.9999Z" fill="#FF0000"/>
<path d="M47.3999 35.9001C47.3999 37.6001 46.7999 39.1001 45.5999 40.4001C44.3999 41.6001 42.8999 42.3001 41.0999 42.3001C39.3999 42.3001 37.8999 41.7001 36.6999 40.4001C35.4999 39.2001 34.8999 37.7001 34.8999 35.9001V16.5001C34.8999 14.8001 35.4999 13.3001 36.6999 12.0001C37.8999 10.8001 39.3999 10.1001 41.0999 10.1001C42.8999 10.1001 44.3999 10.7001 45.5999 12.0001C46.7999 13.2001 47.3999 14.7001 47.3999 16.5001V35.9001ZM43.9999 35.9001V16.5001C43.9999 15.7001 43.6999 15.0001 43.0999 14.4001C42.4999 13.8001 41.7999 13.5001 40.9999 13.5001C40.1999 13.5001 39.4999 13.8001 38.8999 14.4001C38.2999 15.0001 37.9999 15.7001 37.9999 16.5001V35.8001C37.9999 36.6001 38.2999 37.3001 38.8999 37.9001C39.4999 38.5001 40.1999 38.8001 40.9999 38.8001C41.7999 38.8001 42.4999 38.5001 43.0999 37.9001C43.6999 37.4001 43.9999 36.7001 43.9999 35.9001Z" fill="#FF0000"/>
<path d="M70.2999 10.6001L65.5999 41.8001H63.1999L60.6999 22.4001L58.1999 41.8001H55.7999L51.0999 10.6001H54.4999L56.8999 28.6001L59.4999 10.6001H61.8999L64.4999 28.7001L66.8999 10.6001H70.2999Z" fill="#FF0000"/>
<path d="M86.9 35.5001C86.9 37.2001 86.3 38.7001 85.1 40.0001C83.9 41.2001 82.4 41.9001 80.6 41.9001H74.3V10.6001H80.6C82.4 10.6001 83.9 11.2001 85.1 12.5001C86.3 13.7001 86.9 15.2001 86.9 17.0001V20.7001C86.9 22.5001 86.2 24.1001 84.9 25.3001C86.3 26.6001 86.9 28.1001 86.9 29.9001V35.5001ZM83.6 20.6001V16.9001C83.6 16.1001 83.3 15.4001 82.7 14.8001C82.1 14.2001 81.4 13.9001 80.6 13.9001H77.7V23.5001H80.6C81.4 23.5001 82.1 23.2001 82.7 22.6001C83.3 22.1001 83.6 21.4001 83.6 20.6001ZM83.6 35.5001V29.9001C83.6 29.1001 83.3 28.4001 82.7 27.8001C82.1 27.2001 81.4 26.9001 80.6 26.9001H77.7V38.4001H80.6C81.4 38.4001 82.1 38.1001 82.7 37.5001C83.3 37.0001 83.6 36.3001 83.6 35.5001Z" fill="#FF0000"/>
<path d="M104.1 35.9001C104.1 37.6001 103.5 39.1001 102.3 40.4001C101.1 41.6001 99.6 42.3001 97.8 42.3001C96.1 42.3001 94.6 41.7001 93.4 40.4001C92.2 39.2001 91.6 37.7001 91.6 35.9001V10.6001H95V35.9001C95 36.7001 95.3 37.4001 95.9 38.0001C96.5 38.6001 97.2 38.9001 98 38.9001C98.8 38.9001 99.5 38.6001 100.1 38.0001C100.7 37.4001 101 36.7001 101 35.9001V10.6001H104.4L104.1 35.9001Z" fill="#FF0000"/>
<path d="M121.5 41.8001H118L114.7 28.8001H112V41.8001H108.6V10.6001H114.9C116.7 10.6001 118.2 11.2001 119.4 12.5001C120.6 13.7001 121.2 15.2001 121.2 17.0001V22.6001C121.2 25.1001 120.1 26.9001 118 28.1001L121.5 41.8001ZM117.9 22.5001V16.9001C117.9 16.1001 117.6 15.4001 117 14.8001C116.4 14.2001 115.7 13.9001 114.9 13.9001H112V25.4001H114.9C115.7 25.4001 116.4 25.1001 117 24.5001C117.6 24.0001 117.9 23.3001 117.9 22.5001Z" fill="#FF0000"/>
<path d="M138.4 41.8001H136.5L135.9 40.9001C134.8 41.8001 133.5 42.2001 132 42.2001C130.3 42.2001 128.8 41.6001 127.6 40.3001C126.4 39.1001 125.8 37.6001 125.8 35.8001V16.5001C125.8 14.8001 126.4 13.3001 127.6 12.0001C128.8 10.8001 130.3 10.1001 132 10.1001C133.8 10.1001 135.3 10.7001 136.5 12.0001C137.7 13.2001 138.3 14.7001 138.3 16.5001V21.3001H134.9V16.5001C134.9 15.7001 134.6 15.0001 134 14.4001C133.4 13.8001 132.7 13.5001 131.9 13.5001C131.1 13.5001 130.4 13.8001 129.8 14.4001C129.2 15.0001 128.9 15.7001 128.9 16.5001V35.8001C128.9 36.6001 129.2 37.3001 129.8 37.9001C130.4 38.5001 131.1 38.8001 131.9 38.8001C132.7 38.8001 133.4 38.5001 134 37.9001C134.6 37.3001 134.9 36.6001 134.9 35.8001V28.7001H131.2V25.3001H138.3L138.4 41.8001Z" fill="#FF0000"/>
<path d="M155.6 41.8001H143V10.6001H155.6V14.0001H146.4V23.6001H155.6V27.0001H146.4V38.5001H155.6V41.8001Z" fill="#FF0000"/>
<path d="M173 41.8001H169.5L166.2 28.8001H163.4V41.8001H160V10.6001H166.3C168.1 10.6001 169.6 11.2001 170.8 12.5001C172 13.7001 172.6 15.2001 172.6 17.0001V22.6001C172.6 25.1001 171.5 26.9001 169.4 28.1001L173 41.8001ZM169.4 22.5001V16.9001C169.4 16.1001 169.1 15.4001 168.5 14.8001C167.9 14.2001 167.2 13.9001 166.4 13.9001H163.5V25.4001H166.4C167.2 25.4001 167.9 25.1001 168.5 24.5001C169.1 24.0001 169.4 23.3001 169.4 22.5001Z" fill="#FF0000"/>
<path d="M184.4 52H0.699951V0.300049H184.4V52ZM3.69995 49.1H181.5V3.30005H3.69995V49.1Z" fill="#FF0000"/>
</svg>
