<svg width="24" height="25" viewBox="0 0 24 25" fill="none" xmlns="http://www.w3.org/2000/svg">
<path d="M17 2.01465H7C4.23858 2.01465 2 4.25322 2 7.01465V17.0146C2 19.7761 4.23858 22.0146 7 22.0146H17C19.7614 22.0146 22 19.7761 22 17.0146V7.01465C22 4.25322 19.7614 2.01465 17 2.01465Z" stroke="#FF0000" stroke-width="2" stroke-linecap="round" stroke-linejoin="round"/>
<path d="M15.9997 11.3847C16.1231 12.217 15.981 13.0669 15.5935 13.8137C15.206 14.5605 14.5929 15.1661 13.8413 15.5444C13.0898 15.9226 12.2382 16.0543 11.4075 15.9206C10.5768 15.787 9.80947 15.3948 9.21455 14.7999C8.61962 14.2049 8.22744 13.4376 8.09377 12.6069C7.96011 11.7763 8.09177 10.9246 8.47003 10.1731C8.84829 9.42156 9.45389 8.80845 10.2007 8.42095C10.9475 8.03345 11.7975 7.89129 12.6297 8.01471C13.4786 8.14059 14.2646 8.53617 14.8714 9.14301C15.4782 9.74986 15.8738 10.5358 15.9997 11.3847Z" stroke="#FF0000" stroke-width="2" stroke-linecap="round" stroke-linejoin="round"/>
<path d="M17.5 6.51465H17.51" stroke="#FF0000" stroke-width="2" stroke-linecap="round" stroke-linejoin="round"/>
</svg>
